<svg xmlns="http://www.w3.org/2000/svg" viewBox="0 0 512 512" width="100%" height="100%">
  <defs>
    <linearGradient id="bg" x1="0%" y1="0%" x2="100%" y2="100%">
      <stop offset="0%" stop-color="#1c1c26"/>
      <stop offset="100%" stop-color="#0e0e14"/>
    </linearGradient>
    <linearGradient id="metal" x1="0%" y1="0%" x2="100%" y2="100%">
      <stop offset="0%" stop-color="#e2e8f0"/>
      <stop offset="50%" stop-color="#94a3b8"/>
      <stop offset="100%" stop-color="#475569"/>
    </linearGradient>
    <linearGradient id="hub" x1="0%" y1="0%" x2="100%" y2="100%">
      <stop offset="0%" stop-color="#334155"/>
      <stop offset="100%" stop-color="#1e293b"/>
    </linearGradient>
  </defs>
  <rect width="512" height="512" rx="100" fill="url(#bg)"/>
  <rect x="20" y="20" width="472" height="472" rx="80" fill="none" stroke="#334155" stroke-width="4"/>
  <g transform="translate(160, 205)">
    <circle r="100" fill="#1e293b" stroke="url(#metal)" stroke-width="7"/>
    <circle r="72" fill="none" stroke="#475569" stroke-width="3" stroke-dasharray="14,8"/>
    <circle r="40" fill="url(#hub)" stroke="url(#metal)" stroke-width="5"/>
    <rect x="-6" y="-34" width="12" height="68" rx="3" fill="#64748b"/>
    <rect x="-6" y="-34" width="12" height="68" rx="3" fill="#64748b" transform="rotate(60)"/>
    <rect x="-6" y="-34" width="12" height="68" rx="3" fill="#64748b" transform="rotate(120)"/>
    <circle r="16" fill="#0f172a" stroke="url(#metal)" stroke-width="3"/>
    <circle r="5" fill="#f8fafc"/>
  </g>
  <g transform="translate(352, 205)">
    <circle r="100" fill="#1e293b" stroke="url(#metal)" stroke-width="7"/>
    <circle r="72" fill="none" stroke="#475569" stroke-width="3" stroke-dasharray="14,8"/>
    <circle r="40" fill="url(#hub)" stroke="url(#metal)" stroke-width="5"/>
    <rect x="-6" y="-34" width="12" height="68" rx="3" fill="#64748b"/>
    <rect x="-6" y="-34" width="12" height="68" rx="3" fill="#64748b" transform="rotate(60)"/>
    <rect x="-6" y="-34" width="12" height="68" rx="3" fill="#64748b" transform="rotate(120)"/>
    <circle r="16" fill="#0f172a" stroke="url(#metal)" stroke-width="3"/>
    <circle r="5" fill="#f8fafc"/>
  </g>
  <path d="M 160 305 C 220 350, 292 350, 352 305" fill="none" stroke="#64748b" stroke-width="6"/>
  <rect x="226" y="318" width="60" height="32" rx="4" fill="url(#metal)" stroke="#334155" stroke-width="2"/>
  <rect x="238" y="327" width="36" height="14" rx="2" fill="#0f172a"/>
  <text x="256" y="72" text-anchor="middle" font-family="-apple-system,BlinkMacSystemFont,Segoe UI,Roboto,sans-serif" font-size="32" font-weight="900" fill="#f8fafc" letter-spacing="4">REVOX</text>
  <text x="256" y="102" text-anchor="middle" font-family="-apple-system,BlinkMacSystemFont,Segoe UI,Roboto,sans-serif" font-size="18" font-weight="700" fill="#00b4d8" letter-spacing="3">TAPE REMOTE</text>
  <g transform="translate(64, 385)">
    <rect width="384" height="65" rx="10" fill="#181822" stroke="#334155" stroke-width="2"/>
    <circle cx="50" cy="32" r="13" fill="#3b82f6"/>
    <circle cx="120" cy="32" r="13" fill="#3b82f6"/>
    <circle cx="192" cy="32" r="13" fill="#f59e0b"/>
    <circle cx="264" cy="32" r="15" fill="#22c55e"/>
    <circle cx="334" cy="32" r="13" fill="#ef4444"/>
  </g>
</svg>